<?xml version="1.0" standalone="no"?>
<!DOCTYPE svg PUBLIC "-//W3C//DTD SVG 20010904//EN"
 "http://www.w3.org/TR/2001/REC-SVG-20010904/DTD/svg10.dtd">
<svg version="1.0" xmlns="http://www.w3.org/2000/svg"
 width="512.000000pt" height="512.000000pt" viewBox="0 0 512.000000 512.000000"
 preserveAspectRatio="xMidYMid meet">

<g transform="translate(0.000000,512.000000) scale(0.100000,-0.100000)"
fill="#000000" stroke="none">
<path d="M1131 4629 c-24 -4 -63 -18 -86 -29 -85 -41 -112 -84 -336 -532 -191
-385 -211 -430 -220 -497 -6 -42 -9 -250 -7 -495 3 -415 3 -422 26 -471 13
-27 36 -67 53 -87 l29 -37 -34 -45 c-68 -90 -71 -107 -71 -436 0 -329 3 -346
71 -436 l34 -44 -34 -44 c-68 -90 -71 -107 -71 -441 l0 -300 29 -63 c46 -99
128 -162 239 -182 34 -7 692 -9 1843 -8 1763 3 1790 3 1838 23 72 30 138 93
172 167 l29 63 0 300 c0 334 -3 351 -71 441 l-34 44 34 44 c68 90 71 107 71
436 0 329 -3 346 -71 436 l-34 45 29 37 c17 20 40 60 53 87 23 49 23 56 26
471 2 243 -1 453 -7 495 -9 68 -28 112 -225 505 -198 398 -219 434 -265 477
-100 89 39 82 -1556 84 -775 0 -1430 -3 -1454 -8z m2892 -175 c34 -23 60 -71
247 -445 152 -303 210 -429 210 -454 l0 -35 -1920 0 -1920 0 0 35 c0 25 58
150 209 453 207 415 225 444 281 465 8 3 654 6 1435 6 l1420 1 38 -26z m455
-1446 c-3 -388 -1 -373 -67 -424 -26 -19 -61 -19 -1839 -22 l-1814 -2 -36 21
c-79 44 -77 31 -80 427 l-3 352 1921 0 1921 0 -3 -352z m-66 -633 c15 -11 36
-37 48 -57 20 -36 21 -48 18 -330 -3 -321 -2 -314 -67 -364 -26 -19 -61 -19
-1839 -22 l-1814 -2 -36 21 c-78 44 -77 37 -77 379 0 299 0 306 22 336 49 69
-107 64 1903 61 1798 -2 1815 -2 1842 -22z m0 -960 c15 -11 36 -37 48 -57 20
-36 21 -48 18 -330 -3 -321 -2 -314 -67 -364 -26 -19 -61 -19 -1839 -22
l-1814 -2 -36 21 c-78 44 -77 37 -77 379 0 299 0 306 22 336 49 69 -107 64
1903 61 1798 -2 1815 -2 1842 -22z"/>
<path d="M1170 4307 c-38 -19 -54 -60 -38 -94 26 -55 -20 -53 1120 -50 l1057
2 22 22 c29 29 29 77 0 106 l-22 22 -1057 2 c-839 2 -1062 0 -1082 -10z"/>
<path d="M3570 4307 c-38 -19 -54 -60 -38 -94 23 -49 47 -54 240 -51 168 3
179 4 199 25 14 13 22 34 22 53 0 19 -8 40 -22 53 -20 21 -31 22 -199 25 -130
2 -184 -1 -202 -11z"/>
<path d="M3858 3186 c-205 -56 -235 -337 -45 -435 135 -69 304 10 336 159 37
171 -122 322 -291 276z m128 -160 c25 -24 34 -43 34 -66 0 -23 -9 -41 -34 -66
-24 -24 -43 -34 -66 -34 -23 0 -41 10 -66 34 -24 25 -34 43 -34 66 0 23 10 42
34 66 25 25 43 34 66 34 23 0 42 -9 66 -34z"/>
<path d="M1010 3107 c-41 -21 -51 -53 -48 -159 3 -85 6 -100 25 -119 29 -29
77 -29 106 0 20 20 22 32 22 131 0 96 -2 112 -20 129 -28 27 -56 33 -85 18z"/>
<path d="M1410 3107 c-41 -21 -51 -53 -48 -159 3 -85 6 -100 25 -119 29 -29
77 -29 106 0 20 20 22 32 22 131 0 96 -2 112 -20 129 -28 27 -56 33 -85 18z"/>
<path d="M1810 3107 c-41 -21 -51 -53 -48 -159 3 -85 6 -100 25 -119 29 -29
77 -29 106 0 20 20 22 32 22 131 0 96 -2 112 -20 129 -28 27 -56 33 -85 18z"/>
<path d="M2210 3107 c-41 -21 -51 -53 -48 -159 3 -85 6 -100 25 -119 29 -29
77 -29 106 0 20 20 22 32 22 131 0 96 -2 112 -20 129 -28 27 -56 33 -85 18z"/>
<path d="M2610 3107 c-41 -21 -51 -53 -48 -159 3 -85 6 -100 25 -119 29 -29
77 -29 106 0 20 20 22 32 22 131 0 96 -2 112 -20 129 -28 27 -56 33 -85 18z"/>
<path d="M2930 3027 c-38 -19 -54 -60 -38 -94 24 -51 41 -53 320 -51 250 3
258 4 279 25 29 29 29 77 0 106 -21 21 -29 22 -279 25 -194 2 -263 -1 -282
-11z"/>
<path d="M3858 2226 c-205 -56 -235 -337 -45 -435 135 -69 304 10 336 159 37
171 -122 322 -291 276z m128 -160 c25 -24 34 -43 34 -66 0 -23 -9 -41 -34 -66
-24 -24 -43 -34 -66 -34 -23 0 -41 10 -66 34 -24 25 -34 43 -34 66 0 23 10 42
34 66 25 25 43 34 66 34 23 0 42 -9 66 -34z"/>
<path d="M1010 2147 c-41 -21 -51 -53 -48 -159 3 -85 6 -100 25 -119 29 -29
77 -29 106 0 20 20 22 32 22 131 0 96 -2 112 -20 129 -28 27 -56 33 -85 18z"/>
<path d="M1410 2147 c-41 -21 -51 -53 -48 -159 3 -85 6 -100 25 -119 29 -29
77 -29 106 0 20 20 22 32 22 131 0 96 -2 112 -20 129 -28 27 -56 33 -85 18z"/>
<path d="M1810 2147 c-41 -21 -51 -53 -48 -159 3 -85 6 -100 25 -119 29 -29
77 -29 106 0 20 20 22 32 22 131 0 96 -2 112 -20 129 -28 27 -56 33 -85 18z"/>
<path d="M2210 2147 c-41 -21 -51 -53 -48 -159 3 -85 6 -100 25 -119 29 -29
77 -29 106 0 20 20 22 32 22 131 0 96 -2 112 -20 129 -28 27 -56 33 -85 18z"/>
<path d="M2610 2147 c-41 -21 -51 -53 -48 -159 3 -85 6 -100 25 -119 29 -29
77 -29 106 0 20 20 22 32 22 131 0 96 -2 112 -20 129 -28 27 -56 33 -85 18z"/>
<path d="M2930 2067 c-38 -19 -54 -60 -38 -94 24 -51 41 -53 320 -51 250 3
258 4 279 25 29 29 29 77 0 106 -21 21 -29 22 -279 25 -194 2 -263 -1 -282
-11z"/>
<path d="M3858 1266 c-205 -56 -235 -337 -45 -435 135 -69 304 10 336 159 37
171 -122 322 -291 276z m133 -155 c64 -65 20 -171 -71 -171 -58 0 -100 42
-100 100 0 91 106 135 171 71z"/>
<path d="M1010 1187 c-41 -21 -51 -53 -48 -159 3 -85 6 -100 25 -119 29 -29
77 -29 106 0 20 20 22 32 22 131 0 96 -2 112 -20 129 -28 27 -56 33 -85 18z"/>
<path d="M1410 1187 c-41 -21 -51 -53 -48 -159 3 -85 6 -100 25 -119 29 -29
77 -29 106 0 20 20 22 32 22 131 0 96 -2 112 -20 129 -28 27 -56 33 -85 18z"/>
<path d="M1810 1187 c-41 -21 -51 -53 -48 -159 3 -85 6 -100 25 -119 29 -29
77 -29 106 0 20 20 22 32 22 131 0 96 -2 112 -20 129 -28 27 -56 33 -85 18z"/>
<path d="M2210 1187 c-41 -21 -51 -53 -48 -159 3 -85 6 -100 25 -119 29 -29
77 -29 106 0 20 20 22 32 22 131 0 96 -2 112 -20 129 -28 27 -56 33 -85 18z"/>
<path d="M2610 1187 c-41 -21 -51 -53 -48 -159 3 -85 6 -100 25 -119 29 -29
77 -29 106 0 20 20 22 32 22 131 0 96 -2 112 -20 129 -28 27 -56 33 -85 18z"/>
<path d="M2930 1107 c-38 -19 -54 -60 -38 -94 24 -51 41 -53 320 -51 250 3
258 4 279 25 29 29 29 77 0 106 -21 21 -29 22 -279 25 -194 2 -263 -1 -282
-11z"/>
</g>
</svg>
